# xmcd CD database file
#
# Track frame offsets:
#	150
#	13105
#	25061
#	41803
#	47074
#	51944
#	56518
#	64299
#	69451
#	77851
#	82656
#	91520
#	96337
#	105474
#	113043
#	117540
#	121373
#
# Disc length: 1693 seconds
#
# Revision: 0
# Processed by: cddbd v1.5.2PL0 Copyright (c) Steve Scherf et al.
# Submitted via: CDex 1.51
#
DISCID=dc069b11
DTITLE=Kasey Chambers - Little Bird [CD2)
DYEAR=2010
DGENRE=Country
TTITLE0=Millionaires
TTITLE1=Old School
TTITLE2=Hold On
TTITLE3=Kasey Chambers Talks About Little Bird (Pt 1)
TTITLE4=Kasey Chambers Talks About Little Bird (Pt 2)
TTITLE5=Kasey Chambers Talks About Little Bird (Pt 3)
TTITLE6=Kasey Chambers Talks About Little Bird (Pt 4)
TTITLE7=Kasey Chambers Talks About Little Bird (Pt 5)
TTITLE8=Kasey Chambers Talks About Little Bird (Pt 6)
TTITLE9=Kasey Chambers Talks About Little Bird (Pt 7)
TTITLE10=Kasey Chambers Talks About Little Bird (Pt 8)
TTITLE11=Kasey Chambers Talks About Little Bird (Pt 9)
TTITLE12=Kasey Chambers Talks About Little Bird (Pt 10)
TTITLE13=Kasey Chambers Talks About Little Bird (Pt 11)
TTITLE14=Kasey Chambers Talks About Little Bird (Pt 12)
TTITLE15=Kasey Chambers Talks About Little Bird (Pt 13)
TTITLE16=Kasey Chambers Talks About Little Bird (Pt 14)
EXTD=YEAR: 2010
EXTT0=
EXTT1=
EXTT2=
EXTT3=
EXTT4=
EXTT5=
EXTT6=
EXTT7=
EXTT8=
EXTT9=
EXTT10=
EXTT11=
EXTT12=
EXTT13=
EXTT14=
EXTT15=
EXTT16=
PLAYORDER=
